<svg xmlns="http://www.w3.org/2000/svg" width="124.036" height="26.57" viewBox="0 0 124.036 26.57"><g fill="#4A98AA"><g data-name="Group 20714"><path data-name="Path 4948" d="M18.482 9.717a9.23 9.23 0 0 1-9.237 9.237H7.107v-.007A9.237 9.237 0 0 0 7.471.48h1.775a9.237 9.237 0 0 1 9.236 9.237Z"/><path data-name="Path 4949" d="M7.106.48v25.558H0v-7.106h.007v-3.286h.022l-.022-.026V.48Z"/><path data-name="Path 4950" d="M.029 15.648H.007v-.026l.022.026Z"/><path data-name="Path 4951" d="M14.599 11.174a9.24 9.24 0 0 1-7.493 7.495v-.835A9.236 9.236 0 0 0 7.126.481h.021a9.235 9.235 0 0 1 7.452 10.693Z"/><path data-name="Path 4952" d="M10.487 13.09a9.194 9.194 0 0 1-3.381 3.383v-1.848a9.391 9.391 0 0 0 1.139-1.14A9.237 9.237 0 0 0 7.115.479a9.237 9.237 0 0 1 3.372 12.611Z"/><path data-name="Path 4953" d="M7.106 12.35V9.713a9.234 9.234 0 0 0 0-9.233 9.241 9.241 0 0 1 0 11.87Z"/><path data-name="Path 4954" d="M.029 15.648H.007v-.026l.022.026Z"/></g><path data-name="Path 4955" d="M21.334.511h6.277v25.55h-6.277Z"/><path data-name="Path 4956" d="M31.627 13.29C31.627 6.1 36.372.005 44.365.005c7.008 0 11.2 4.307 12.154 9.782h-6.351c-.766-2.154-2.372-4.307-5.73-4.307-4.088 0-6.532 3.54-6.532 7.81s2.445 7.811 6.532 7.811c3.357 0 4.964-2.154 5.73-4.307h6.35c-.949 5.475-5.146 9.782-12.154 9.782-7.993-.006-12.737-6.101-12.737-13.286Z"/><path data-name="Path 4957" d="M60.422.511h5.693l11.861 15.512V.511h5.949v25.55h-5.73L66.37 10.549v15.512h-5.948Z"/><path data-name="Path 4958" d="M88.853.511h6.277v25.55h-6.277V.511Z"/><path data-name="Path 4959" d="M99.145 13.29c0-7.19 4.745-13.285 12.738-13.285 7.008 0 11.2 4.307 12.153 9.782h-6.35c-.766-2.154-2.373-4.307-5.73-4.307-4.088 0-6.533 3.54-6.533 7.81s2.445 7.811 6.533 7.811c3.357 0 4.964-2.154 5.73-4.307h6.35c-.948 5.475-5.146 9.782-12.153 9.782-7.993-.006-12.738-6.101-12.738-13.286Z"/></g></svg>