<?xml version="1.0" standalone="no"?>
<!DOCTYPE svg PUBLIC "-//W3C//DTD SVG 20010904//EN"
 "http://www.w3.org/TR/2001/REC-SVG-20010904/DTD/svg10.dtd">
<svg version="1.0" xmlns="http://www.w3.org/2000/svg"
 width="1598.000000pt" height="566.000000pt" viewBox="0 0 1598.000000 566.000000"
 preserveAspectRatio="xMidYMid meet">

<g transform="translate(0.000000,566.000000) scale(0.100000,-0.100000)"
fill="#fff" stroke="none">
<path fill="#BC221C"  d="M1570 5634 c-124 -20 -277 -71 -402 -136 -310 -159 -554 -444 -672
-786 -62 -178 -94 -410 -81 -571 l8 -81 259 0 c239 0 260 1 254 17 -16 42 -28
177 -23 268 27 472 405 845 856 845 408 0 762 -301 846 -719 14 -66 16 -113
11 -215 -3 -72 -8 -146 -12 -163 l-6 -33 260 0 261 0 7 37 c12 63 -4 322 -25
424 -107 501 -454 905 -911 1059 -186 63 -441 85 -630 54z"/>
<path  fill="#BC221C" d="M450 3814 c0 -32 60 -195 104 -281 115 -229 343 -382 651 -439 128
-23 393 -16 525 15 519 120 977 351 1368 690 12 10 22 22 22 25 0 3 -601 6
-1335 6 -1218 0 -1335 -1 -1335 -16z"/>
<path fill="#BC221C" d="M2985 3357 c-131 -83 -364 -210 -640 -349 -590 -297 -1051 -481
-1308 -523 -292 -47 -563 21 -802 200 -72 55 -215 198 -215 216 0 5 -4 9 -10
9 -7 0 -10 -385 -10 -1136 l0 -1137 79 119 c140 212 383 486 752 849 511 503
799 748 1327 1130 210 151 629 438 816 558 87 56 106 73 106 93 0 13 -3 24 -7
23 -5 0 -44 -24 -88 -52z"/>
  <path  fill="#BC221C"  d="M3375 3282 c-183 -123 -281 -196 -450 -337 -389 -323 -856 -798
-1286 -1305 -187 -221 -537 -664 -594 -753 l-18 -28 54 22 c515 205 879 301
1205 316 292 13 511 -46 709 -194 102 -76 169 -148 240 -257 126 -192 184
-370 204 -617 5 -61 12 -113 15 -116 10 -10 67 49 82 84 12 27 14 301 14 1663
0 896 -3 1630 -7 1630 -5 0 -80 -48 -168 -108z"/>
  
<path fill="#BC221C" d="M1550 734 c-85 -11 -254 -49 -375 -84 -387 -114 -783 -324 -1100
-583 l-29 -25 34 -21 35 -21 1274 0 1273 0 -7 38 c-9 50 -68 201 -108 276 -43
81 -181 220 -274 275 -161 95 -327 139 -548 145 -77 2 -156 2 -175 0z"/>

<path d="M8140 2440 l0 -1330 255 0 255 0 2 875 3 875 788 -900 787 -900 175
0 175 0 0 1325 0 1325 -250 0 -250 0 0 -871 c0 -485 -4 -869 -9 -867 -4 2
-361 406 -791 898 l-783 895 -179 3 -178 2 0 -1330z"/>
<path d="M12021 3753 c-6 -13 -1006 -2369 -1108 -2610 l-13 -33 268 0 268 0
119 275 119 275 532 0 531 0 83 -202 c45 -112 95 -236 112 -275 l30 -73 270 0
c253 0 270 1 265 18 -3 13 -863 2098 -1059 2570 l-30 72 -189 0 c-169 0 -189
-2 -198 -17z m377 -1218 l180 -460 -366 -3 c-201 -1 -367 0 -370 2 -2 3 74
197 169 433 212 526 199 496 204 491 2 -2 85 -210 183 -463z"/>
<path d="M4732 3493 l3 -218 536 -5 535 -5 -612 -1040 c-337 -572 -623 -1057
-634 -1078 l-21 -37 1020 0 1021 0 0 220 0 220 -600 2 -599 3 633 1078 634
1077 -959 0 -959 0 2 -217z"/>
<path d="M7030 2410 l0 -1300 255 0 255 0 0 1300 0 1300 -255 0 -255 0 0
-1300z"/>
<path d="M13810 2411 l0 -1301 433 0 c520 0 640 12 852 82 372 124 676 438
799 825 81 257 81 539 0 796 -103 324 -334 598 -631 747 -97 48 -236 95 -362
122 -88 19 -138 21 -593 25 l-498 4 0 -1300z m988 830 c170 -36 332 -137 445
-276 56 -69 138 -232 162 -320 23 -83 31 -286 16 -381 -48 -293 -233 -539
-482 -640 -110 -45 -227 -64 -431 -71 l-188 -6 0 863 0 863 193 -6 c136 -4
219 -12 285 -26z"/>


<path d="M7682 668 c-28 -28 -3 -88 37 -88 10 0 26 9 36 20 27 30 10 74 -30
78 -17 2 -36 -3 -43 -10z"/>
<path d="M9256 664 c-21 -20 -20 -37 3 -65 16 -20 23 -22 47 -14 51 18 42 95
-12 95 -12 0 -30 -7 -38 -16z"/>
<path d="M13254 657 c-23 -20 -27 -33 -32 -95 -5 -71 -5 -72 -33 -72 -26 0
-29 -4 -29 -30 0 -27 3 -30 30 -30 l30 0 0 -210 0 -210 35 0 35 0 0 210 0 210
51 0 c49 0 50 1 47 28 -3 25 -7 27 -51 30 l-48 3 3 62 3 62 48 0 c44 0 47 2
47 26 0 31 -15 39 -70 39 -26 0 -48 -8 -66 -23z"/>
<path d="M14751 666 c-22 -26 -9 -70 23 -81 24 -8 31 -6 47 14 23 28 24 45 3
65 -19 20 -58 21 -73 2z"/>
<path d="M5970 576 l0 -85 -42 -3 c-39 -3 -43 -6 -46 -30 -3 -27 -2 -28 42
-28 l46 0 0 -210 0 -210 30 0 30 0 0 210 0 210 50 0 c49 0 50 1 50 30 0 29 -1
30 -50 30 l-50 0 0 85 0 85 -30 0 -30 0 0 -84z"/>
<path d="M7450 575 l0 -85 -45 0 c-43 0 -45 -1 -45 -30 0 -29 2 -30 45 -30
l45 0 0 -210 0 -210 30 0 30 0 0 210 0 210 51 0 c49 0 50 1 47 28 -3 25 -7 27
-50 30 l-48 3 0 85 0 84 -30 0 -30 0 0 -85z"/>
<path d="M4530 330 l0 -320 30 0 30 0 0 149 0 149 108 4 c173 5 227 45 227
168 0 82 -18 113 -85 148 -39 19 -59 22 -177 22 l-133 0 0 -320z m268 249 c41
-14 62 -49 62 -102 0 -35 -6 -49 -31 -73 -29 -28 -35 -29 -135 -32 l-104 -4 0
111 0 111 89 0 c48 0 102 -5 119 -11z"/>
<path d="M5165 485 c-16 -9 -40 -28 -52 -43 l-23 -27 0 38 c0 34 -2 37 -30 37
l-30 0 0 -240 0 -240 30 0 30 0 0 130 c0 166 12 224 57 269 27 27 39 32 62 28
24 -5 32 -1 45 19 16 23 16 25 -9 34 -35 13 -45 13 -80 -5z"/>
<path d="M5468 484 c-61 -19 -131 -88 -152 -151 -42 -123 9 -260 117 -312 60
-29 174 -29 234 0 147 71 177 283 56 404 -69 69 -157 89 -255 59z m186 -82
c122 -85 106 -272 -29 -333 -167 -76 -332 119 -234 278 57 92 176 117 263 55z"/>
<path d="M6385 491 c-219 -54 -253 -369 -51 -473 32 -16 54 -19 126 -16 76 3
92 6 128 32 36 25 82 80 82 99 0 4 -9 11 -21 18 -19 9 -25 6 -52 -26 -105
-128 -304 -81 -332 78 l-7 37 217 0 218 0 -6 45 c-20 145 -160 240 -302 206z
m160 -81 c36 -22 75 -76 75 -104 0 -14 -20 -16 -175 -16 -126 0 -175 3 -175
12 0 6 11 30 25 53 48 83 164 108 250 55z"/>
<path d="M6977 486 c-116 -32 -187 -124 -187 -242 0 -74 15 -116 59 -166 49
-56 106 -78 201 -78 91 0 129 13 183 60 43 37 44 41 17 58 -18 11 -25 9 -58
-17 -99 -77 -229 -64 -305 31 -52 65 -49 172 6 235 77 88 202 97 299 21 31
-24 41 -27 58 -18 27 14 25 21 -12 58 -62 59 -170 84 -261 58z"/>
<path d="M8020 481 c-161 -57 -214 -270 -101 -402 48 -57 99 -79 189 -79 86 0
130 19 184 78 44 48 62 100 61 172 -1 173 -169 289 -333 231z m155 -60 c79
-36 115 -95 115 -185 0 -110 -95 -195 -202 -183 -197 24 -231 292 -48 371 47
20 87 19 135 -3z"/>
<path d="M8646 486 c-21 -8 -56 -28 -77 -46 l-39 -31 0 41 c0 38 -2 40 -30 40
l-30 0 0 -240 0 -240 30 0 30 0 0 123 c1 67 5 142 9 166 16 81 72 132 154 139
49 4 57 1 87 -25 41 -37 49 -78 50 -260 l0 -143 31 0 31 0 -4 178 c-3 166 -5
180 -28 221 -14 25 -39 53 -56 63 -43 25 -111 31 -158 14z"/>
<path d="M9505 486 c-46 -21 -67 -51 -72 -103 -6 -66 19 -102 105 -152 82 -47
95 -62 95 -102 0 -69 -95 -100 -158 -51 -29 23 -29 23 -49 3 -16 -17 -17 -22
-6 -36 25 -30 68 -45 130 -45 54 0 64 3 96 33 29 26 37 42 41 80 9 80 -9 105
-129 176 -41 25 -78 66 -78 88 0 25 47 63 78 63 16 0 45 -11 65 -24 l35 -24
19 20 c17 19 17 21 -12 44 -29 23 -84 44 -115 44 -8 -1 -28 -7 -45 -14z"/>
<path d="M10198 484 c-126 -39 -198 -192 -153 -325 36 -106 115 -159 235 -159
90 0 145 24 191 81 83 105 76 251 -17 343 -70 70 -157 91 -256 60z m186 -82
c122 -85 106 -272 -29 -333 -167 -76 -332 119 -234 278 57 92 176 117 263 55z"/>
<path d="M11320 489 c-14 -5 -40 -24 -57 -42 l-33 -31 0 37 c0 34 -2 37 -30
37 l-30 0 0 -240 0 -240 29 0 28 0 5 158 c5 135 8 163 27 199 23 46 71 78 102
70 13 -4 25 3 36 19 8 14 14 27 11 29 -11 11 -65 14 -88 4z"/>
<path d="M11909 491 c-40 -13 -72 -32 -101 -59 l-28 -26 0 42 c0 40 -1 42 -30
42 l-30 0 0 -245 0 -245 30 0 c29 0 30 2 30 42 l0 42 28 -27 c40 -39 93 -57
164 -57 78 0 131 23 177 75 46 53 63 99 63 170 0 135 -92 237 -224 250 -29 2
-65 1 -79 -4z m126 -70 c76 -35 115 -95 115 -176 0 -57 -14 -92 -53 -134 -59
-62 -135 -77 -212 -42 -154 70 -147 300 12 357 52 18 91 17 138 -5z"/>
<path d="M12445 485 c-16 -9 -40 -28 -52 -43 l-23 -27 0 38 c0 34 -2 37 -30
37 l-30 0 0 -240 0 -240 30 0 30 0 0 130 c0 166 12 224 57 269 27 27 39 32 62
28 24 -5 32 -1 45 19 16 23 16 25 -9 34 -35 13 -45 13 -80 -5z"/>
<path d="M12748 484 c-93 -28 -168 -136 -168 -240 0 -90 57 -186 133 -223 60
-29 174 -29 234 0 146 71 177 284 57 403 -70 70 -157 91 -256 60z m186 -82
c122 -85 106 -272 -29 -333 -167 -76 -332 119 -234 278 57 92 176 117 263 55z"/>
<path d="M13628 488 c-50 -13 -121 -78 -148 -134 -59 -120 0 -291 117 -340 50
-21 176 -18 222 5 37 20 111 93 111 111 0 5 -9 14 -20 20 -18 10 -27 5 -64
-33 -50 -52 -100 -71 -167 -65 -80 8 -159 89 -159 163 l0 25 215 0 c244 0 228
-7 199 89 -36 124 -172 195 -306 159z m140 -63 c56 -24 112 -86 112 -125 0 -6
-59 -10 -175 -10 -161 0 -175 1 -175 18 0 31 48 89 92 111 51 25 95 27 146 6z"/>
<path d="M14135 493 c-88 -22 -123 -139 -61 -206 13 -14 49 -40 80 -57 61 -35
96 -72 96 -102 0 -11 -13 -33 -29 -49 -37 -37 -75 -38 -126 -3 l-38 25 -20
-20 c-16 -16 -18 -23 -8 -35 39 -46 160 -62 217 -27 20 12 38 36 49 65 15 40
16 50 4 88 -12 36 -24 49 -79 85 -105 67 -120 81 -120 114 0 65 69 88 133 45
35 -24 36 -24 53 -5 14 16 15 21 3 35 -31 37 -104 59 -154 47z"/>
<path d="M14485 493 c-88 -22 -123 -139 -62 -205 13 -14 52 -42 87 -62 35 -21
70 -45 77 -54 21 -28 15 -62 -16 -93 -37 -37 -75 -38 -126 -3 l-38 25 -21 -21
-21 -21 25 -20 c38 -30 66 -39 123 -39 71 0 110 25 133 85 16 43 16 51 3 89
-11 33 -26 49 -79 83 -107 70 -120 82 -120 113 0 36 34 70 70 70 15 0 43 -11
63 -24 35 -24 36 -24 53 -5 14 16 15 21 3 35 -31 37 -104 59 -154 47z"/>
<path d="M15115 491 c-73 -18 -142 -78 -173 -150 -19 -45 -20 -134 -3 -185 17
-49 73 -112 122 -137 51 -26 168 -26 225 0 49 23 107 88 122 140 30 97 8 195
-58 262 -63 65 -149 91 -235 70z m107 -61 c153 -43 187 -261 55 -348 -58 -38
-146 -38 -205 1 -52 34 -82 91 -82 156 0 87 37 146 115 182 46 21 66 23 117 9z"/>
<path d="M15729 491 c-40 -13 -72 -31 -101 -59 l-28 -26 0 42 c0 40 -1 42 -30
42 l-30 0 0 -240 0 -240 30 0 30 0 0 133 c0 72 5 149 10 169 28 101 136 156
220 113 53 -27 62 -61 68 -247 l5 -168 30 0 29 0 -4 173 c-3 154 -6 177 -26
219 -14 27 -37 56 -56 68 -38 23 -109 33 -147 21z"/>
<path d="M7690 250 l0 -240 30 0 30 0 0 240 0 240 -30 0 -30 0 0 -240z"/>
<path d="M9260 250 l0 -240 30 0 30 0 0 240 0 240 -30 0 -30 0 0 -240z"/>
<path d="M10640 328 c0 -179 8 -222 47 -269 37 -43 80 -59 163 -59 78 0 110
12 151 57 44 47 53 93 54 268 l0 160 -30 0 -30 0 -5 -177 -5 -177 -29 -30
c-72 -75 -195 -60 -241 29 -12 22 -15 68 -15 195 l0 165 -30 0 -30 0 0 -162z"/>
<path d="M14760 250 l0 -240 30 0 30 0 0 240 0 240 -30 0 -30 0 0 -240z"/>
</g>
</svg>
